<svg xmlns="http://www.w3.org/2000/svg" viewBox="0 0 1431.94 597.95"><defs><style>.cls-1{fill:#f42121;opacity:0;}.cls-2{fill:#f4fcff;}.cls-3{fill:#d2d9dc;}.cls-4{fill:#fff;}.cls-5,.cls-7{font-size:18px;fill:#767f87;}.cls-5{font-family:Roboto-Medium, Roboto;font-weight:500;}.cls-6{letter-spacing:-0.06em;}.cls-7{font-family:NotoSansCJKkr-Medium-KSCpc-EUC-H, Noto Sans CJK KR;}</style></defs><title>Asset 9</title><g id="Layer_2" data-name="Layer 2"><g id="txt"><rect class="cls-1" width="1431.94" height="597.95"/><rect class="cls-2" x="562.33" y="9.21" width="503.66" height="87.52"/><path class="cls-3" d="M1066,9.21h-2v2h0v.36h2V9.21Zm-5,0h-2v2h2v-2Zm-5,0h-2v2h2v-2Zm-5,0h-2v2h2v-2Zm-5,0h-2v2h2v-2Zm-5,0h-2v2h2v-2Zm-5,0h-2v2h2v-2Zm-5,0h-2v2h2v-2Zm-5,0h-2v2h2v-2Zm-5,0h-2v2h2v-2Zm-5,0h-2v2h2v-2Zm-5,0h-2v2h2v-2Zm-5,0h-2v2h2v-2Zm-5,0h-2v2h2v-2Zm-5,0h-2v2h2v-2Zm-5,0h-2v2h2v-2Zm-5,0h-2v2h2v-2Zm-5,0h-2v2h2v-2Zm-5,0h-2v2h2v-2Zm-5,0h-2v2h2v-2Zm-5,0h-2v2h2v-2Zm-5,0h-2v2h2v-2Zm-5,0h-2v2h2v-2Zm-5,0h-2v2h2v-2Zm-5,0h-2v2h2v-2Zm-5,0h-2v2h2v-2Zm-5,0h-2v2h2v-2Zm-5,0h-2v2h2v-2Zm-5,0h-2v2h2v-2Zm-5,0h-2v2h2v-2Zm-5,0h-2v2h2v-2Zm-5,0h-2v2h2v-2Zm-5,0h-2v2h2v-2Zm-5,0h-2v2h2v-2Zm-5,0h-2v2h2v-2Zm-5,0h-2v2h2v-2Zm-5,0h-2v2h2v-2Zm-5,0h-2v2h2v-2Zm-5,0h-2v2h2v-2Zm-5,0h-2v2h2v-2Zm-5,0h-2v2h2v-2Zm-5,0h-2v2h2v-2Zm-5,0h-2v2h2v-2Zm-5,0h-2v2h2v-2Zm-5,0h-2v2h2v-2Zm-5,0h-2v2h2v-2Zm-5,0h-2v2h2v-2Zm-5,0h-2v2h2v-2Zm-5,0h-2v2h2v-2Zm-5,0h-2v2h2v-2Zm-5,0h-2v2h2v-2Zm-5,0h-2v2h2v-2Zm-5,0h-2v2h2v-2Zm-5,0h-2v2h2v-2Zm-5,0h-2v2h2v-2Zm-5,0h-2v2h2v-2Zm-5,0h-2v2h2v-2Zm-5,0h-2v2h2v-2Zm-5,0h-2v2h2v-2Zm-5,0h-2v2h2v-2Zm-5,0h-2v2h2v-2Zm-5,0h-2v2h2v-2Zm-5,0h-2v2h2v-2Zm-5,0h-2v2h2v-2Zm-5,0h-2v2h2v-2Zm-5,0h-2v2h2v-2Zm-5,0h-2v2h2v-2Zm-5,0h-2v2h2v-2Zm-5,0h-2v2h2v-2Zm-5,0h-2v2h2v-2Zm-5,0h-2v2h2v-2Zm-5,0h-2v2h2v-2Zm-5,0h-2v2h2v-2Zm-5,0h-2v2h2v-2Zm-5,0h-2v2h2v-2Zm-5,0h-2v2h2v-2Zm-5,0h-2v2h2v-2Zm-5,0h-2v2h2v-2Zm-5,0h-2v2h2v-2Zm-5,0h-2v2h2v-2Zm-5,0h-2v2h2v-2Zm-5,0h-2v2h2v-2Zm-5,0h-2v2h2v-2Zm-5,0h-2v2h2v-2Zm-5,0h-2v2h2v-2Zm-5,0h-2v2h2v-2Zm-5,0h-2v2h2v-2Zm-5,0h-2v2h2v-2Zm-5,0h-2v2h2v-2Zm-5,0h-2v2h2v-2Zm-5,0h-2v2h2v-2Zm-5,0h-2v2h2v-2Zm-5,0h-2v2h2v-2Zm-5,0h-2v2h2v-2Zm-5,0h-2v2h2v-2Zm-5,0h-2v2h2v-2Zm-5,0h-2v2h2v-2Zm-5,0h-2v2h2v-2Zm-5,0h-2v2h2v-2Zm-5,0h-2v2h2v-2Zm-5,0h-2v1.34h-1.66v2h2V11.21H566v-2Zm-1.66,6.34h-2v2h2v-2Zm0,5h-2v2h2v-2Zm0,5h-2v2h2v-2Zm0,5h-2v2h2v-2Zm0,5h-2v2h2v-2Zm0,5h-2v2h2v-2Zm0,5h-2v2h2v-2Zm0,5h-2v2h2v-2Zm0,5h-2v2h2v-2Zm0,5h-2v2h2v-2Zm0,5h-2v2h2v-2Zm0,5h-2v2h2v-2Zm0,5h-2v2h2v-2Zm0,5h-2v2h2v-2Zm0,5h-2v2h2v-2Zm0,5h-2v2h2v-2Zm-1.18,4.18h-.82v.82h0v0h0v1.18h2V95.55h-1.18v-.82Zm5,0h-2v2h2v-2Zm5,0h-2v2h2v-2Zm5,0h-2v2h2v-2Zm5,0h-2v2h2v-2Zm5,0h-2v2h2v-2Zm5,0h-2v2h2v-2Zm5,0h-2v2h2v-2Zm5,0h-2v2h2v-2Zm5,0h-2v2h2v-2Zm5,0h-2v2h2v-2Zm5,0h-2v2h2v-2Zm5,0h-2v2h2v-2Zm5,0h-2v2h2v-2Zm5,0h-2v2h2v-2Zm5,0h-2v2h2v-2Zm5,0h-2v2h2v-2Zm5,0h-2v2h2v-2Zm5,0h-2v2h2v-2Zm5,0h-2v2h2v-2Zm5,0h-2v2h2v-2Zm5,0h-2v2h2v-2Zm5,0h-2v2h2v-2Zm5,0h-2v2h2v-2Zm5,0h-2v2h2v-2Zm5,0h-2v2h2v-2Zm5,0h-2v2h2v-2Zm5,0h-2v2h2v-2Zm5,0h-2v2h2v-2Zm5,0h-2v2h2v-2Zm5,0h-2v2h2v-2Zm5,0h-2v2h2v-2Zm5,0h-2v2h2v-2Zm5,0h-2v2h2v-2Zm5,0h-2v2h2v-2Zm5,0h-2v2h2v-2Zm5,0h-2v2h2v-2Zm5,0h-2v2h2v-2Zm5,0h-2v2h2v-2Zm5,0h-2v2h2v-2Zm5,0h-2v2h2v-2Zm5,0h-2v2h2v-2Zm5,0h-2v2h2v-2Zm5,0h-2v2h2v-2Zm5,0h-2v2h2v-2Zm5,0h-2v2h2v-2Zm5,0h-2v2h2v-2Zm5,0h-2v2h2v-2Zm5,0h-2v2h2v-2Zm5,0h-2v2h2v-2Zm5,0h-2v2h2v-2Zm5,0h-2v2h2v-2Zm5,0h-2v2h2v-2Zm5,0h-2v2h2v-2Zm5,0h-2v2h2v-2Zm5,0h-2v2h2v-2Zm5,0h-2v2h2v-2Zm5,0h-2v2h2v-2Zm5,0h-2v2h2v-2Zm5,0h-2v2h2v-2Zm5,0h-2v2h2v-2Zm5,0h-2v2h2v-2Zm5,0h-2v2h2v-2Zm5,0h-2v2h2v-2Zm5,0h-2v2h2v-2Zm5,0h-2v2h2v-2Zm5,0h-2v2h2v-2Zm5,0h-2v2h2v-2Zm5,0h-2v2h2v-2Zm5,0h-2v2h2v-2Zm5,0h-2v2h2v-2Zm5,0h-2v2h2v-2Zm5,0h-2v2h2v-2Zm5,0h-2v2h2v-2Zm5,0h-2v2h2v-2Zm5,0h-2v2h2v-2Zm5,0h-2v2h2v-2Zm5,0h-2v2h2v-2Zm5,0h-2v2h2v-2Zm5,0h-2v2h2v-2Zm5,0h-2v2h2v-2Zm5,0h-2v2h2v-2Zm5,0h-2v2h2v-2Zm5,0h-2v2h2v-2Zm5,0h-2v2h2v-2Zm5,0h-2v2h2v-2Zm5,0h-2v2h2v-2Zm5,0h-2v2h2v-2Zm5,0h-2v2h2v-2Zm5,0h-2v2h2v-2Zm5,0h-2v2h2v-2Zm5,0h-2v2h2v-2Zm5,0h-2v2h2v-2Zm5,0h-2v2h2v-2Zm5,0h-2v2h2v-2Zm5,0h-2v2h2v-2Zm5,0h-2v2h2v-2Zm5,0h-2v2h2v-2Zm5,0h-2v2h2v-2Zm5,0h-2v2h2v-2Zm5,0h-2v2h2v-2Zm2.84-.16h-2v2h2v-2Zm0-5h-2v2h2v-2Zm0-5h-2v2h2v-2Zm0-5h-2v2h2v-2Zm0-5h-2v2h2v-2Zm0-5h-2v2h2v-2Zm0-5h-2v2h2v-2Zm0-5h-2v2h2v-2Zm0-5h-2v2h2v-2Zm0-5h-2v2h2v-2Zm0-5h-2v2h2v-2Zm0-5h-2v2h2v-2Zm0-5h-2v2h2v-2Zm0-5h-2v2h2v-2Zm0-5h-2v2h2v-2Zm0-5h-2v2h2v-2Zm0-5h-2v2h2v-2Z"/><polyline class="cls-4" points="1065.99 99.4 1203.5 99.4 1203.5 261.11 925 261.11 479.33 261.11 400 318.41 243.96 587.54 59 485.62 59 394.26 199 166.88 448 9.21 562.33 9.21 562.33 96.73 1065.99 96.73"/><path class="cls-3" d="M1066,9.21h-2v2h0v.36h2V9.21Zm-5,0h-2v2h2v-2Zm-5,0h-2v2h2v-2Zm-5,0h-2v2h2v-2Zm-5,0h-2v2h2v-2Zm-5,0h-2v2h2v-2Zm-5,0h-2v2h2v-2Zm-5,0h-2v2h2v-2Zm-5,0h-2v2h2v-2Zm-5,0h-2v2h2v-2Zm-5,0h-2v2h2v-2Zm-5,0h-2v2h2v-2Zm-5,0h-2v2h2v-2Zm-5,0h-2v2h2v-2Zm-5,0h-2v2h2v-2Zm-5,0h-2v2h2v-2Zm-5,0h-2v2h2v-2Zm-5,0h-2v2h2v-2Zm-5,0h-2v2h2v-2Zm-5,0h-2v2h2v-2Zm-5,0h-2v2h2v-2Zm-5,0h-2v2h2v-2Zm-5,0h-2v2h2v-2Zm-5,0h-2v2h2v-2Zm-5,0h-2v2h2v-2Zm-5,0h-2v2h2v-2Zm-5,0h-2v2h2v-2Zm-5,0h-2v2h2v-2Zm-5,0h-2v2h2v-2Zm-5,0h-2v2h2v-2Zm-5,0h-2v2h2v-2Zm-5,0h-2v2h2v-2Zm-5,0h-2v2h2v-2Zm-5,0h-2v2h2v-2Zm-5,0h-2v2h2v-2Zm-5,0h-2v2h2v-2Zm-5,0h-2v2h2v-2Zm-5,0h-2v2h2v-2Zm-5,0h-2v2h2v-2Zm-5,0h-2v2h2v-2Zm-5,0h-2v2h2v-2Zm-5,0h-2v2h2v-2Zm-5,0h-2v2h2v-2Zm-5,0h-2v2h2v-2Zm-5,0h-2v2h2v-2Zm-5,0h-2v2h2v-2Zm-5,0h-2v2h2v-2Zm-5,0h-2v2h2v-2Zm-5,0h-2v2h2v-2Zm-5,0h-2v2h2v-2Zm-5,0h-2v2h2v-2Zm-5,0h-2v2h2v-2Zm-5,0h-2v2h2v-2Zm-5,0h-2v2h2v-2Zm-5,0h-2v2h2v-2Zm-5,0h-2v2h2v-2Zm-5,0h-2v2h2v-2Zm-5,0h-2v2h2v-2Zm-5,0h-2v2h2v-2Zm-5,0h-2v2h2v-2Zm-5,0h-2v2h2v-2Zm-5,0h-2v2h2v-2Zm-5,0h-2v2h2v-2Zm-5,0h-2v2h2v-2Zm-5,0h-2v2h2v-2Zm-5,0h-2v2h2v-2Zm-5,0h-2v2h2v-2Zm-5,0h-2v2h2v-2Zm-5,0h-2v2h2v-2Zm-5,0h-2v2h2v-2Zm-5,0h-2v2h2v-2Zm-5,0h-2v2h2v-2Zm-5,0h-2v2h2v-2Zm-5,0h-2v2h2v-2Zm-5,0h-2v2h2v-2Zm-5,0h-2v2h2v-2Zm-5,0h-2v2h2v-2Zm-5,0h-2v2h2v-2Zm-5,0h-2v2h2v-2Zm-5,0h-2v2h2v-2Zm-5,0h-2v2h2v-2Zm-5,0h-2v2h2v-2Zm-5,0h-2v2h2v-2Zm-5,0h-2v2h2v-2Zm-5,0h-2v2h2v-2Zm-5,0h-2v2h2v-2Zm-5,0h-2v2h2v-2Zm-5,0h-2v2h2v-2Zm-5,0h-2v2h2v-2Zm-5,0h-2v2h2v-2Zm-5,0h-2v2h2v-2Zm-5,0h-2v2h2v-2Zm-5,0h-2v2h2v-2Zm-5,0h-2v2h2v-2Zm-5,0h-2v2h2v-2Zm-5,0h-2v2h2v-2Zm-5,0h-2v2h2v-2Zm-5,0h-2v2h2v-2Zm-5,0h-2v2h2v-2Zm-5,0h-2v2h2v-2Zm-5,0h-2v1.34h-1.66v2h2V11.21H566v-2Zm-1.66,6.34h-2v2h2v-2Zm0,5h-2v2h2v-2Zm0,5h-2v2h2v-2Zm0,5h-2v2h2v-2Zm0,5h-2v2h2v-2Zm0,5h-2v2h2v-2Zm0,5h-2v2h2v-2Zm0,5h-2v2h2v-2Zm0,5h-2v2h2v-2Zm0,5h-2v2h2v-2Zm0,5h-2v2h2v-2Zm0,5h-2v2h2v-2Zm0,5h-2v2h2v-2Zm0,5h-2v2h2v-2Zm0,5h-2v2h2v-2Zm0,5h-2v2h2v-2Zm-1.18,4.18h-.82v.82h0v0h0v1.18h2V95.55h-1.18v-.82Zm5,0h-2v2h2v-2Zm5,0h-2v2h2v-2Zm5,0h-2v2h2v-2Zm5,0h-2v2h2v-2Zm5,0h-2v2h2v-2Zm5,0h-2v2h2v-2Zm5,0h-2v2h2v-2Zm5,0h-2v2h2v-2Zm5,0h-2v2h2v-2Zm5,0h-2v2h2v-2Zm5,0h-2v2h2v-2Zm5,0h-2v2h2v-2Zm5,0h-2v2h2v-2Zm5,0h-2v2h2v-2Zm5,0h-2v2h2v-2Zm5,0h-2v2h2v-2Zm5,0h-2v2h2v-2Zm5,0h-2v2h2v-2Zm5,0h-2v2h2v-2Zm5,0h-2v2h2v-2Zm5,0h-2v2h2v-2Zm5,0h-2v2h2v-2Zm5,0h-2v2h2v-2Zm5,0h-2v2h2v-2Zm5,0h-2v2h2v-2Zm5,0h-2v2h2v-2Zm5,0h-2v2h2v-2Zm5,0h-2v2h2v-2Zm5,0h-2v2h2v-2Zm5,0h-2v2h2v-2Zm5,0h-2v2h2v-2Zm5,0h-2v2h2v-2Zm5,0h-2v2h2v-2Zm5,0h-2v2h2v-2Zm5,0h-2v2h2v-2Zm5,0h-2v2h2v-2Zm5,0h-2v2h2v-2Zm5,0h-2v2h2v-2Zm5,0h-2v2h2v-2Zm5,0h-2v2h2v-2Zm5,0h-2v2h2v-2Zm5,0h-2v2h2v-2Zm5,0h-2v2h2v-2Zm5,0h-2v2h2v-2Zm5,0h-2v2h2v-2Zm5,0h-2v2h2v-2Zm5,0h-2v2h2v-2Zm5,0h-2v2h2v-2Zm5,0h-2v2h2v-2Zm5,0h-2v2h2v-2Zm5,0h-2v2h2v-2Zm5,0h-2v2h2v-2Zm5,0h-2v2h2v-2Zm5,0h-2v2h2v-2Zm5,0h-2v2h2v-2Zm5,0h-2v2h2v-2Zm5,0h-2v2h2v-2Zm5,0h-2v2h2v-2Zm5,0h-2v2h2v-2Zm5,0h-2v2h2v-2Zm5,0h-2v2h2v-2Zm5,0h-2v2h2v-2Zm5,0h-2v2h2v-2Zm5,0h-2v2h2v-2Zm5,0h-2v2h2v-2Zm5,0h-2v2h2v-2Zm5,0h-2v2h2v-2Zm5,0h-2v2h2v-2Zm5,0h-2v2h2v-2Zm5,0h-2v2h2v-2Zm5,0h-2v2h2v-2Zm5,0h-2v2h2v-2Zm5,0h-2v2h2v-2Zm5,0h-2v2h2v-2Zm5,0h-2v2h2v-2Zm5,0h-2v2h2v-2Zm5,0h-2v2h2v-2Zm5,0h-2v2h2v-2Zm5,0h-2v2h2v-2Zm5,0h-2v2h2v-2Zm5,0h-2v2h2v-2Zm5,0h-2v2h2v-2Zm5,0h-2v2h2v-2Zm5,0h-2v2h2v-2Zm5,0h-2v2h2v-2Zm5,0h-2v2h2v-2Zm5,0h-2v2h2v-2Zm5,0h-2v2h2v-2Zm5,0h-2v2h2v-2Zm5,0h-2v2h2v-2Zm5,0h-2v2h2v-2Zm5,0h-2v2h2v-2Zm5,0h-2v2h2v-2Zm5,0h-2v2h2v-2Zm5,0h-2v2h2v-2Zm5,0h-2v2h2v-2Zm5,0h-2v2h2v-2Zm5,0h-2v2h2v-2Zm5,0h-2v2h2v-2Zm5,0h-2v2h2v-2Zm2.84-.16h-2v2h2v-2Zm0-5h-2v2h2v-2Zm0-5h-2v2h2v-2Zm0-5h-2v2h2v-2Zm0-5h-2v2h2v-2Zm0-5h-2v2h2v-2Zm0-5h-2v2h2v-2Zm0-5h-2v2h2v-2Zm0-5h-2v2h2v-2Zm0-5h-2v2h2v-2Zm0-5h-2v2h2v-2Zm0-5h-2v2h2v-2Zm0-5h-2v2h2v-2Zm0-5h-2v2h2v-2Zm0-5h-2v2h2v-2Zm0-5h-2v2h2v-2Zm0-5h-2v2h2v-2Z"/><path class="cls-3" d="M1257.43,231.9v30.33h-39V231.9h39m2-2h-43v34.33h43V229.9Z"/><path class="cls-3" d="M1138,110.88v36h-36v-36h36m2-2h-40v40h40v-40Z"/><path class="cls-3" d="M1125.33,211.9v36h-36v-36h36m2-2h-40v40h40v-40Z"/><path class="cls-3" d="M1068.24,211.9v36h-36v-36h36m2-2h-40v40h40v-40Z"/><path class="cls-3" d="M1011.15,211.9v36h-36v-36h36m2-2h-40v40h40v-40Z"/><rect class="cls-4" x="332.6" y="476.98" width="17.1" height="17.28" transform="translate(-251.28 520.85) rotate(-58.31)"/><path class="cls-3" d="M1058,17.21V107.4H1195.5V253.11H476.75l-2.1,1.52-79.34,57.3-1.38,1-.85,1.48L241,576.76,67,480.89V396.52L204.84,172.65,450.32,17.21H1058m8-8H448L199,166.88,59,394.26v91.36L244,587.54,400,318.41l79.33-57.3H1203.5V99.4H1066V9.21Z"/><path class="cls-3" d="M539.33,35V71h-36V35h36m2-2h-40V73h40V33Z"/><path class="cls-3" d="M484.1,35V71h-36V35h36m2-2h-40V73h40V33Z"/><path class="cls-3" d="M754.31,211.9v36h-36v-36h36m2-2h-40v40h40v-40Z"/><path class="cls-3" d="M580.33,211.9v36h-36v-36h36m2-2h-40v40h40v-40Z"/><path class="cls-3" d="M484.1,150.88v36h-36v-36h36m2-2h-40v40h40v-40Z"/><path class="cls-3" d="M332.6,215.06v36h-36v-36h36m2-2h-40v40h40v-40Z"/><path class="cls-3" d="M185.67,208.36l30.86,18.53L198,257.75l-30.87-18.53,18.53-30.86m-.69-2.75-20.58,34.3,34.29,20.59,20.59-34.3L185,205.61Z"/><path class="cls-3" d="M158.23,254l30.86,18.53-18.53,30.87L139.7,284.88,158.23,254m-.69-2.74L137,285.57l34.3,20.58,20.59-34.29-34.3-20.59Z"/><path class="cls-3" d="M340.41,322.46,371.28,341l-18.53,30.86-30.87-18.53,18.53-30.86m-.69-2.75L319.14,354l34.29,20.59L374,340.3l-34.3-20.59Z"/><path class="cls-3" d="M232.57,508.75l30.87,18.53-18.53,30.87L214,539.62l18.53-30.87m-.68-2.74-20.59,34.3,34.3,20.58,20.58-34.29L231.89,506Z"/><path class="cls-3" d="M252.61,146.93l20,29.95-29.94,20-20-29.94,29.94-20m.55-2.77-33.27,22.2,22.21,33.27,33.27-22.2-22.21-33.27Z"/><polygon class="cls-4" points="320.95 464.73 308.74 457.09 317.09 444.21 329.31 451.85 320.95 464.73"/><path class="cls-3" d="M89.91,445.29l30.87,18.53-18.53,30.87L71.38,476.16l18.53-30.87m-.69-2.74L68.64,476.84l34.29,20.59,20.59-34.3-34.3-20.58Z"/><rect class="cls-4" x="642.67" y="251.06" width="16.21" height="16.35"/><rect class="cls-4" x="881.67" y="249.85" width="16.21" height="17.56"/><rect class="cls-4" x="1197.74" y="181.57" width="11.52" height="16.21"/><polygon class="cls-4" points="450.2 290.07 436.61 298.91 426.98 285.92 440.57 277.08 450.2 290.07"/><text class="cls-5" transform="translate(624.27 289.67)">G<tspan class="cls-6" x="12.25" y="0">A</tspan><tspan x="23.18" y="0">TE 2</tspan></text><text class="cls-5" transform="translate(862.67 289.67)">G<tspan class="cls-6" x="12.25" y="0">A</tspan><tspan x="23.18" y="0">TE 1</tspan></text><text class="cls-7" transform="translate(1216.43 184.16)">의전주차장<tspan x="0" y="21.6">출구</tspan></text><text class="cls-7" transform="translate(777.23 59.97)">국내선 도착</text><text class="cls-5" transform="translate(346.58 467.81) rotate(-56.92)">G<tspan class="cls-6" x="12.25" y="0">A</tspan><tspan x="23.18" y="0">TE 4</tspan></text><text class="cls-5" transform="translate(432.33 327.77) rotate(-36.25)">G<tspan class="cls-6" x="12.25" y="0">A</tspan><tspan x="23.18" y="0">TE 3</tspan></text></g></g></svg>