<svg xmlns="http://www.w3.org/2000/svg" viewBox="0 0 1432.62 596.76"><defs><style>.cls-1{fill:#f42121;opacity:0;}.cls-2{fill:#fff;}.cls-3,.cls-5{fill:none;stroke:#d2d9dc;stroke-miterlimit:10;}.cls-3{stroke-width:8px;}.cls-4{fill:#d2d9dc;}.cls-5{stroke-width:2px;}.cls-6{fill:#f4fcff;}</style></defs><title>map_제주국제공항_국내선</title><g id="txt"><rect class="cls-1" width="1431.94" height="597.95"/><g id="국내4f"><polygon class="cls-2" points="786.67 245.48 786.67 23.42 319.32 23.42 98.23 398.1 393.43 572.27 559.75 290.38 622.13 245.48 786.67 245.48"/><polygon class="cls-3" points="786.67 245.48 786.67 23.42 319.32 23.42 98.23 398.1 393.43 572.27 559.75 290.38 622.13 245.48 786.67 245.48"/><path class="cls-4" d="M188,265.62l277.91,164-76,128.79L112,394.4l76-128.78m-.71-2.74-78,132.22,281.37,166,78-132.23-281.36-166Z"/><path class="cls-4" d="M188,265.62l168.12,99.2-76,128.79L112,394.4l76-128.78m-.71-2.74-78,132.22L280.84,496.34l78-132.23L187.29,262.88Z"/><path class="cls-4" d="M779.43,155.38l.23,80H619l-.52.38-66.31,47.89-.34.24-.21.36-25.07,42.48L467,427.85,391.77,383.5l84.44-143.1,143.87-85H779.43m2-2H619.53L474.78,238.93h0L389,384.2l78.61,46.39,60.66-102.8,25.07-42.48,66.31-47.89h162l-.24-84Z"/><line class="cls-5" x1="475.7" y1="239.63" x2="552.5" y2="284.63"/><line class="cls-5" x1="619.67" y1="235.75" x2="619.67" y2="154.75"/><path class="cls-4" d="M368.58,182.51l38.88,22.94L349,304.57,310.1,281.62l58.48-99.11m-.71-2.74L307.36,282.33l42.33,25L410.2,204.74l-42.33-25Z"/><path class="cls-4" d="M535.82,34.25l38.66,66.39-144.22,84L391.6,118.2,535.82,34.25m.72-2.73-147.68,86,40.68,69.84,147.68-86L536.54,31.52Z"/><rect class="cls-3" x="148.45" y="364.75" width="8.18" height="121.28" transform="translate(-291.35 340.59) rotate(-59.46)"/><polygon class="cls-6" points="320.59 28.15 184.28 260.25 286.78 321.01 368.25 182.3 368.25 182.3 409.79 206.93 428.76 189.75 388.85 120.89 535.12 35.3 535.2 35.44 535.2 28.15 320.59 28.15"/><path class="cls-4" d="M535.2,28.15h-2v2h2v-2Zm-5,0h-2v2h2v-2Zm-5,0h-2v2h2v-2Zm-5,0h-2v2h2v-2Zm-5,0h-2v2h2v-2Zm-5,0h-2v2h2v-2Zm-5,0h-2v2h2v-2Zm-5,0h-2v2h2v-2Zm-5,0h-2v2h2v-2Zm-5,0h-2v2h2v-2Zm-5,0h-2v2h2v-2Zm-5,0h-2v2h2v-2Zm-5,0h-2v2h2v-2Zm-5,0h-2v2h2v-2Zm-5,0h-2v2h2v-2Zm-5,0h-2v2h2v-2Zm-5,0h-2v2h2v-2Zm-5,0h-2v2h2v-2Zm-5,0h-2v2h2v-2Zm-5,0h-2v2h2v-2Zm-5,0h-2v2h2v-2Zm-5,0h-2v2h2v-2Zm-5,0h-2v2h2v-2Zm-5,0h-2v2h2v-2Zm-5,0h-2v2h2v-2Zm-5,0h-2v2h2v-2Zm-5,0h-2v2h2v-2Zm-5,0h-2v2h2v-2Zm-5,0h-2v2h2v-2Zm-5,0h-2v2h2v-2Zm-5,0h-2v2h2v-2Zm-5,0h-2v2h2v-2Zm-5,0h-2v2h2v-2Zm-5,0h-2v2h2v-2Zm-5,0h-2v2h2v-2Zm-5,0h-2v2h2v-2Zm-5,0h-2v2h2v-2Zm-5,0h-2v2h2v-2Zm-5,0h-2v2h2v-2Zm-5,0h-2v2h2v-2Zm-5,0h-2v2h2v-2Zm-5,0h-2v2h2v-2Zm-5,0h-2v2h2v-2Zm-4.8.34-1,1.72,1.73,1,1-1.72-1.72-1Zm-2.54,4.31-1,1.72,1.72,1,1-1.72-1.73-1Zm-2.53,4.31h0l0,0h0v0h0v0h0l-.89,1.52,1.72,1,1-1.73-1.73-1Zm-2.53,4.31-1,1.72,1.72,1,1-1.73-1.72-1Zm-2.53,4.31-1,1.73,1.73,1,1-1.73-1.72-1ZM307.73,50l-1,1.73,1.73,1,1-1.72-1.73-1Zm-2.53,4.31-1,1.73,1.72,1,1-1.72-1.73-1Zm-2.53,4.32-1,1.72,1.72,1,1-1.72-1.72-1ZM300.14,63l-1,1.72,1.72,1,1-1.72-1.72-1Zm-2.53,4.31L297,68.41h0l-.35.59,1.73,1,1-1.73-1.72-1Zm-2.54,4.31-1,1.72,1.73,1,1-1.73-1.73-1Zm-2.53,4.31-1,1.73,1.72,1,1-1.73-1.73-1ZM290,80.22l-.72,1.23L289,82l1.72,1,1-1.72-1.72-1Zm-2.53,4.31-1,1.73,1.73,1,1-1.72-1.72-1ZM285,88.85l-1,1.72,1.73,1,1-1.72-1.72-1Zm-2.54,4.31-1,1.72,1.72,1,1-1.72-1.73-1Zm-2.53,4.31-.4.68h0l-.59,1,1.72,1,1-1.73-1.73-1Zm-2.53,4.31-1,1.72,1.72,1,1-1.73-1.72-1Zm-2.53,4.31-.64,1.09-.38.64,1.73,1,1-1.73-1.72-1Zm-2.54,4.31-1,1.73,1.73,1,1-1.72-1.73-1Zm-2.53,4.31-1,1.73,1.72,1,1-1.72-1.73-1ZM267.22,119l-.76,1.29h0v0h0l-.23.4,1.72,1,1-1.72-1.72-1Zm-2.53,4.31-1,1.72,1.72,1,1-1.72-1.72-1Zm-2.53,4.31-1,1.72,1.73,1,1-1.73-1.72-1ZM259.62,132l-1,1.72,1.73,1,1-1.73-1.73-1Zm-2.53,4.31-.45.76v0h0c-.27.45-.55.94-.55.94l1.72,1,1-1.73-1.73-1Zm-2.53,4.31h0l0,0h0v0h0v0h0l0,0h0l-.89,1.53,1.72,1,1-1.73-1.72-1ZM252,144.89l-1,1.73,1.73,1,1-1.72-1.72-1Zm-2.53,4.31-1,1.73,1.73,1,1-1.72-1.72-1ZM247,153.52l-.13.22h0v0h0l-.87,1.48,1.72,1,1-1.72-1.73-1Zm-2.53,4.31-1,1.72,1.72,1,1-1.73-1.73-1Zm-2.53,4.31-1,1.72,1.72,1,1-1.73-1.72-1Zm-2.53,4.31-.44.74-.58,1,1.73,1,1-1.73-1.72-1Zm-2.54,4.31-1,1.73,1.73,1,1-1.73-1.73-1Zm-2.53,4.31-.52.89-.49.84,1.72,1,1-1.72-1.73-1Zm-2.53,4.31-1,1.73,1.72,1,1-1.72-1.72-1Zm-2.53,4.32-1,1.72,1.72,1,1-1.72-1.72-1ZM226.71,188l-1,1.72,1.73,1,1-1.73-1.72-1Zm-2.54,4.31-.18.32h0l-.82,1.4,1.73,1,1-1.73-1.73-1Zm-2.53,4.31-1,1.73,1.72,1,1-1.73-1.73-1Zm-2.53,4.31-1,1.73,1.72,1,1-1.73-1.72-1Zm-2.53,4.31-.4.69-.62,1,1.73,1,1-1.72-1.72-1Zm-2.53,4.31-1,1.73,1.73,1,1-1.72-1.72-1Zm-2.54,4.32-1,1.72,1.72,1,1-1.72-1.73-1ZM209,218.19l-1,1.72,1.72,1,1-1.73-1.73-1Zm-2.53,4.31-1,1.72,1.72,1,1-1.73-1.72-1Zm-2.53,4.31-1,1.72,1.73,1,1-1.73-1.72-1Zm-2.54,4.31-1,1.73,1.73,1,1-1.73-1.73-1Zm-2.53,4.31-1,1.73,1.72,1,1-1.72-1.73-1Zm-2.53,4.31-1,1.73,1.72,1,1-1.72-1.73-1Zm-2.53,4.32-1,1.72,1.72,1,1-1.72-1.72-1Zm-2.53,4.31-1,1.72,1.73,1,1-1.72-1.72-1Zm-2.54,4.31-1,1.72,1.73,1,1-1.73-1.73-1ZM186.19,257l-1,1.72,1.06.63-.91,1.53,1.31.78h0l.4.24,1-1.72-1.06-.63.91-1.54-1.73-1Zm4.46,4.71-1,1.72.35.21h.11l0,0h0l.05,0h0l0,0h0l0,0h0l0,0h0l1,.6,1-1.72-1.72-1Zm4.3,2.55-1,1.72,1.25.74h0l.45.27,1-1.72-1.72-1Zm4.3,2.55-1,1.72,1.27.75.45.27,1-1.72-1.72-1Zm4.31,2.55-1,1.72.67.4h0l1,.61,1-1.72-1.72-1Zm4.3,2.55-1,1.72.95.56h0l.76.45,1-1.72-1.72-1Zm4.3,2.55-1,1.72,1.72,1,1-1.72-1.72-1Zm4.3,2.55-1,1.72,1.72,1,1-1.72-1.72-1Zm4.3,2.55-1,1.72,1.72,1,1-1.72-1.72-1Zm4.3,2.55-1,1.72,1.72,1,1-1.72-1.72-1Zm4.3,2.55-1,1.72,1.72,1,1-1.72-1.72-1Zm4.3,2.55-1,1.72,1.72,1,1-1.72-1.72-1Zm4.3,2.55-1,1.72.86.5h0l.85.51,1-1.72-1.72-1Zm4.3,2.55-1,1.72,1,.58.74.44,1-1.72-1.73-1Zm4.31,2.55-1,1.72.53.31h0l1.18.7,1-1.72-1.72-1Zm4.3,2.55-1,1.72.26.15h.09l1.37.81,1-1.72-1.72-1Zm4.3,2.55-1,1.72,1.72,1,1-1.73-1.72-1Zm4.3,2.54-1,1.73.9.53h.07l.75.45,1-1.73-1.72-1Zm4.3,2.55-1,1.72,1.42.84h0l.27.15,1-1.72-1.72-1Zm4.3,2.55-1,1.72,1.72,1,1-1.72-1.72-1Zm4.3,2.55-1,1.72,1.72,1,1-1.72-1.72-1Zm4.3,2.55-1,1.72.41.25,1.31.77,1-1.72-1.72-1Zm4.3,2.55L280,317l1.3.77.43.25,1-1.72-1.72-1Zm4.31,2.55-1,1.72.76.46h0l.18.1h0l0,0h0l0,0h0l.07.05h0l0,0h0l.55.32,1-1.72-1.72-1Zm1.84-1.29-1,1.72,1.73,1,.9-1.54.11-.18-1.72-1Zm2.53-4.32-1,1.73,1.73,1,.88-1.49h0l.13-.22-1.72-1Zm2.53-4.31-1,1.73,1.72,1,1-1.72-1.72-1Zm2.53-4.31-1,1.73,1.72,1,1-1.73-1.73-1Zm2.53-4.31-1,1.73,1.73,1,1-1.73-1.73-1Zm2.54-4.31-1,1.72,1.73,1,.34-.59h0l.67-1.14-1.72-1Zm2.53-4.31-1,1.72,1.72,1,.74-1.26.27-.47-1.72-1Zm2.53-4.31-1,1.72,1.72,1,1-1.72-1.72-1Zm2.53-4.32-1,1.73,1.72,1,1-1.72-1.73-1Zm2.53-4.31-1,1.73,1.73,1,.37-.64.64-1.08-1.73-1Zm2.54-4.31-1,1.73,1.73,1,.36-.61h0l.65-1.11-1.72-1Zm2.53-4.31-1,1.72,1.72,1,1-1.73-1.72-1Zm2.53-4.31-1,1.72,1.72,1,.41-.69.61-1-1.73-1Zm2.53-4.31-1,1.72,1.72,1,1-1.65h0l0-.06-1.73-1Zm2.53-4.31-1,1.72,1.73,1,1-1.72h0l-1.73-1Zm2.54-4.32-1,1.73,1.73,1,1-1.72-1.72-1Zm2.53-4.31-1,1.73,1.72,1,1-1.72-1.72-1Zm2.53-4.31-1,1.73,1.72,1,1-1.73-1.73-1Zm2.53-4.31-1,1.73,1.73,1,1-1.73-1.73-1Zm2.54-4.31-1,1.72,1.73,1,.2-.35h0l.81-1.37-1.72-1Zm2.53-4.31-1,1.72,1.73,1,.67-1.14.34-.58-1.72-1Zm2.53-4.31-1,1.72,1.72,1,1-1.72-1.72-1Zm2.53-4.32-1,1.73,1.72,1,.52-.89.5-.83-1.73-1Zm2.53-4.31-1,1.73,1.73,1,.5-.86.51-.86-1.73-1Zm2.54-4.31-1,1.73,1.73,1,1-1.73-1.72-1Zm2.53-4.31-1,1.72,1.72,1,1-1.73-1.72-1ZM353,204.4l-1,1.72,1.72,1,.35-.59.66-1.14-1.72-1Zm2.53-4.31-1,1.72,1.72,1,.84-1.41.18-.31-1.73-1Zm2.53-4.31-1,1.72,1.73,1,1-1.72-1.73-1Zm2.54-4.32-1,1.73,1.73,1,1-1.72-1.72-1Zm2.53-4.31-1,1.73,1.72,1,1-1.72-1.72-1Zm2.53-4.31-1,1.73,1.72,1,0,0h0l1-1.67-1.73-1Zm4.68-1.65-1,1.72.47.28,1.25.74,1-1.72-1.72-1Zm4.3,2.55-1,1.72.85.5.87.52,1-1.72-1.72-1Zm4.3,2.55-1,1.72,1.3.77h0l.42.25,1-1.72-1.72-1Zm4.31,2.55-1,1.72,1.72,1,1-1.72-1.72-1Zm4.3,2.55-1,1.72,1.31.78.41.24,1-1.72-1.72-1Zm4.3,2.55-1,1.72,1.72,1,1-1.72-1.72-1Zm4.3,2.55-1,1.72,1.72,1,1-1.72-1.72-1Zm4.3,2.55-1,1.72,1.72,1,1-1.72-1.72-1Zm4.3,2.55-1,1.72,1.33.79h0l.36.21,1-1.72-1.72-1Zm4.3,2.55-1,1.72.32.19h0l1.4.83,1-1.72-1.72-1Zm3.08-2-1.48,1.34,1.34,1.48.5-.45,1-.89-1.34-1.48Zm3.71-3.36-1.49,1.34,1.34,1.49.78-.71h0v0h0l0,0h0l0,0h0l.58-.53-1.34-1.48Zm3.7-3.35L418,196.79l1.34,1.48.08-.07h0l1.4-1.27-1.34-1.48Zm3.71-3.36-1.48,1.34,1.34,1.48,1.48-1.34-1.34-1.48Zm3.71-3.36-1.49,1.35,1.35,1.48,1.09-1h0l.38-.34-1.34-1.49Zm-.3-2.7-1.73,1,1,1.73,1.73-1-.65-1.12-.35-.61Zm-2.51-4.33-1.73,1,1,1.73,1.73-1,0-.06h0l-.95-1.65Zm-2.51-4.32-1.73,1,1,1.73,1.73-1-.71-1.23-.29-.5Zm-2.51-4.33-1.73,1,1,1.73,1.73-1-.6-1-.41-.69Zm-2.5-4.33-1.73,1,1,1.73,1.73-1-.23-.39h0l-.75-1.3Zm-2.51-4.32-1.73,1,1,1.73,1.73-1h0l-1-1.68Zm-2.51-4.33-1.73,1,1,1.73,1.73-1-.56-1h0l-.43-.75Zm-2.51-4.32-1.73,1,1,1.73,1.73-1-.4-.69h0v0h0l-.58-1Zm-2.5-4.33-1.73,1,1,1.73,1.73-1-.14-.24h0l0,0h0v0h0l-.82-1.42ZM404,147.09l-1.73,1,1,1.73,1.73-1-.53-.92h0l-.46-.81Zm-2.51-4.32-1.73,1,1,1.73,1.73-1-.13-.24-.87-1.49ZM399,138.44l-1.73,1,1,1.73,1.73-1-.28-.47h0l0,0h0l-.7-1.2Zm-2.5-4.32-1.73,1,1,1.73,1.73-1L397,135l-.49-.85ZM394,129.79l-1.73,1,1,1.74,1.73-1-.15-.27h0l-.83-1.44Zm-2.51-4.32-1.73,1,1,1.73,1.73-1-.45-.78-.55-1ZM389,121.14l-1.73,1,1,1.73,1.73-1-1-1.73Zm2.91-4.36-1.73,1,1,1.73,1-.59h0l.7-.41-1-1.73Zm4.31-2.52-1.72,1,1,1.72,1.72-1-1-1.72Zm4.32-2.53-1.73,1,1,1.73,1.73-1-1-1.73Zm4.32-2.52-1.73,1,1,1.72,1.1-.64.63-.37-1-1.72Zm4.31-2.53-1.73,1,1,1.73,1-.59h0l.71-.41-1-1.73Zm4.32-2.52-1.73,1,1,1.72.45-.26h0l1.27-.75-1-1.72Zm4.31-2.53-1.72,1,1,1.73,1.72-1-1-1.73Zm4.32-2.52-1.73,1,1,1.72,1.05-.61h0l.67-.39-1-1.72Zm4.31-2.53-1.72,1,1,1.73,1.72-1-1-1.73Zm4.32-2.52-1.73,1,1,1.72,1.73-1-1-1.72Zm4.31-2.53-1.72,1,1,1.73,1.08-.63.64-.38-1-1.73ZM439.37,89l-1.73,1,1,1.72.94-.54.79-.47-1-1.72Zm4.32-2.53-1.73,1,1,1.73.49-.29,1.24-.72-1-1.73ZM448,84l-1.73,1,1,1.72,1.73-1L448,84Zm4.32-2.53-1.73,1,1,1.73,1.11-.65.62-.36-1-1.73Zm4.31-2.52-1.72,1,1,1.72,1.72-1-1-1.72ZM461,76.38l-1.73,1,1,1.73,1.73-1-1-1.73Zm4.31-2.52-1.72,1,1,1.72L465.6,76l.67-.4-1-1.72Zm4.32-2.53-1.73,1,1,1.73.87-.51.86-.5-1-1.73Zm4.31-2.52-1.72,1,1,1.72.55-.32,1.17-.69-1-1.72Zm4.32-2.53-1.73,1,1,1.73h.12l0,0h.07l0,0h.09l.05,0h0l.14-.08h0l.09-.06h.05l1-.6-1-1.73Zm4.32-2.52-1.73,1,1,1.72,1.15-.67.58-.34-1-1.72Zm4.31-2.53-1.73,1,1,1.73,1.73-1-1-1.73Zm4.32-2.52-1.73,1,1,1.72,1.68-1h0l0,0-1-1.72Zm4.31-2.53-1.72,1,1,1.73,1-.6.7-.41-1-1.73Zm4.32-2.52-1.73,1,1,1.72.82-.48.91-.53-1-1.72Zm4.31-2.53-1.72,1,1,1.73.59-.35,1.13-.66-1-1.73Zm4.32-2.52-1.73,1,1,1.72,1.6-.93h0l.13-.08-1-1.72Zm4.31-2.53-1.72,1,1,1.73,1.19-.7h0l.52-.31-1-1.73Zm4.32-2.52-1.73,1,1,1.72,1.73-1-1-1.72ZM521.37,41l-1.73,1,1,1.73,1.62-1,.11-.06-1-1.73Zm4.31-2.52-1.73,1,1,1.72,1-.58.72-.43-1-1.72ZM530,36l-1.73,1,1,1.73.74-.44h0l1-.57L530,36Zm5.2-3-1.09.63-1.52.9,1,1.72,1.28-.75h0l.11-.06h0l.08-.05h.06l0,0h0v0h0l0,.07h0v-2.5Zm0-2.56h-2v2h2v-2Z"/><path class="cls-4" d="M727.17,33.52V74.76H624.83V33.52H727.17m2-2H622.83V76.76H729.17V31.52Z"/><line class="cls-5" x1="623.83" y1="75.76" x2="576.38" y2="100.69"/><line class="cls-5" x1="536.52" y1="32.52" x2="623.76" y2="32.52"/></g></g></svg>